<svg xmlns="http://www.w3.org/2000/svg" xmlns:xlink="http://www.w3.org/1999/xlink" width="500" zoomAndPan="magnify" viewBox="0 0 375 374.999991" height="500" preserveAspectRatio="xMidYMid meet" version="1.0"><path fill="#f5d0a9" d="M 49.503906 96.738281 C 33 102.234375 35.75 104.050781 28.433594 115.980469 C 21.117188 127.910156 19.242188 151.714844 14.679688 163.585938 C 10.113281 175.519531 4.609375 181.894531 5.488281 197.507812 C 6.425781 213.066406 30.246094 233.242188 30.246094 233.242188 C 30.246094 233.242188 26.558594 265.292969 37.5625 276.289062 C 48.566406 287.28125 76.078125 303.777344 87.082031 317.519531 C 98.085938 331.261719 115.527344 350.503906 129.222656 329.449219 C 142.976562 348.691406 160.421875 356.9375 171.367188 343.195312 C 175.054688 348.691406 186.058594 359.6875 197.0625 345.945312 C 203.5 359.6875 217.253906 360.625 225.507812 345.007812 C 238.324219 355.066406 254.832031 342.257812 265.835938 334.949219 C 276.839844 327.636719 286.90625 316.640625 297.910156 306.523438 C 308.914062 296.464844 333.671875 281.785156 338.238281 267.164062 C 342.804688 252.484375 348.304688 234.179688 355.679688 221.371094 C 362.996094 208.5625 364.871094 203.0625 367.621094 183.824219 C 370.371094 164.582031 363.933594 131.59375 357.554688 122.472656 C 351.117188 113.289062 341.984375 108.726562 328.230469 101.417969 C 314.476562 94.105469 320.5625 85.859375 312.308594 79.425781 C 304.347656 73.226562 305.753906 67.90625 310.847656 48.605469 C 311.199219 47.320312 310.613281 45.972656 309.382812 45.332031 C 250.207031 14.097656 219.070312 43.691406 215.441406 44.570312 C 211.753906 45.503906 214.503906 78.492188 201.683594 92.175781 C 188.808594 105.921875 188.808594 125.105469 188.808594 125.105469 C 188.808594 125.105469 185.121094 109.546875 178.742188 100.363281 C 172.417969 91.359375 167.855469 76.910156 163.347656 45.621094 C 163.230469 44.921875 162.878906 44.21875 162.292969 43.808594 C 127.9375 18.367188 78.886719 34.804688 66.945312 39.421875 C 65.484375 40.007812 64.78125 41.644531 65.425781 43.109375 C 68.644531 50.125 76.78125 69.71875 71.511719 77.203125 C 65.074219 86.328125 66.011719 91.242188 49.503906 96.738281 Z M 49.503906 96.738281 " fill-opacity="1" fill-rule="nonzero"/><path fill="#edac68" d="M 39.320312 250.671875 C 36.976562 246.8125 33.933594 239.089844 30.1875 234.0625 C 29.953125 236.460938 27.027344 265.761719 37.5625 276.289062 C 45.347656 284.066406 61.210938 294.535156 73.851562 304.886719 C 71.394531 298.101562 69.582031 291.144531 69.8125 285.410156 C 70.398438 269.5625 81.402344 264.0625 96.035156 273.246094 C 110.667969 282.371094 125.945312 294.59375 128.34375 306.171875 C 130.277344 315.238281 127.292969 327.285156 123.839844 335.589844 C 125.652344 334.128906 127.46875 332.140625 129.222656 329.449219 C 133.847656 335.941406 138.941406 341.148438 144.03125 344.714844 C 143.269531 338.75 142.394531 331.320312 141.808594 325.0625 C 140.578125 312.257812 136.949219 296.40625 135.71875 290.910156 C 134.492188 285.410156 132.675781 279.914062 138.765625 285.410156 C 144.851562 290.910156 164.984375 302.488281 169.257812 315.296875 C 172.1875 324.070312 171.074219 337.113281 170.136719 344.597656 C 170.605469 344.128906 171.015625 343.664062 171.484375 343.136719 C 175.171875 348.632812 186.175781 359.628906 197.179688 345.886719 C 203.617188 359.628906 217.371094 360.566406 225.625 344.949219 C 230.191406 348.515625 235.222656 349.160156 240.257812 348.28125 C 238.148438 345.359375 236.394531 341.675781 235.808594 336.585938 C 233.996094 320.152344 235.222656 314.652344 246.8125 301.84375 C 258.402344 289.039062 276.722656 274.417969 283.394531 268.917969 C 290.125 263.421875 294.398438 255.527344 298.027344 260.378906 C 301.714844 265.234375 299.84375 276.8125 309.617188 276.230469 C 316.933594 275.761719 329.050781 273.421875 336.074219 272.019531 C 336.191406 271.785156 336.308594 271.550781 336.425781 271.316406 C 331.15625 271.492188 323.605469 270.847656 318.105469 266.460938 C 308.972656 259.152344 304.699219 246.34375 308.972656 234.761719 C 313.246094 223.183594 308.386719 208.5625 318.105469 204.292969 C 327.878906 200.023438 344.324219 185.988281 341.28125 186.628906 C 338.238281 187.214844 325.421875 189.671875 322.960938 182.359375 C 320.503906 175.050781 319.917969 163.46875 322.960938 159.199219 C 326.007812 154.929688 328.464844 142.121094 328.464844 142.121094 L 313.1875 157.972656 L 316.230469 143.9375 C 316.230469 143.9375 308.914062 145.75 305.871094 154.289062 C 302.828125 162.828125 305.285156 173.179688 293.695312 167.097656 C 282.105469 161.011719 264.429688 152.476562 255.300781 139.667969 C 246.167969 126.859375 232.121094 111.652344 231.535156 99.429688 C 227.261719 126.859375 227.261719 138.4375 216.257812 139.023438 C 205.253906 139.609375 200.398438 142.707031 200.398438 131.710938 C 200.398438 120.71875 199.167969 117.675781 204.085938 109.136719 C 208.941406 100.597656 216.257812 82.292969 219.945312 65.859375 C 221.820312 57.4375 224.335938 46.734375 225.742188 38.488281 C 220.003906 41.410156 216.550781 44.101562 215.5 44.335938 C 211.8125 45.273438 214.5625 78.257812 201.742188 91.941406 C 188.808594 105.921875 188.808594 125.105469 188.808594 125.105469 C 188.808594 125.105469 187.109375 118.320312 184.183594 111.125 C 185.472656 117.089844 186.292969 122.648438 185.648438 125.6875 C 183.890625 134.226562 190.5625 138.496094 177.160156 137.328125 C 163.757812 136.097656 150.9375 130.015625 150.9375 130.015625 C 150.9375 130.015625 158.253906 112.9375 153.398438 100.773438 C 145.496094 125.746094 138.765625 136.097656 130.804688 142.824219 C 122.902344 149.550781 114.941406 139.140625 108.855469 141.011719 C 102.765625 142.824219 101.539062 138.554688 98.496094 146.507812 C 95.449219 154.40625 96.035156 158.089844 87.492188 157.503906 C 78.945312 156.917969 81.988281 153.234375 81.988281 144.113281 C 81.988281 134.988281 70.984375 119.136719 70.984375 119.136719 C 70.984375 119.136719 74.671875 128.90625 74.027344 139.257812 C 73.441406 149.609375 67.296875 126.449219 50.851562 121.59375 C 53.308594 123.40625 64.898438 140.484375 63.667969 152.648438 C 62.4375 164.816406 61.210938 169.726562 56.9375 172.769531 C 52.664062 175.808594 38.03125 175.808594 30.070312 180.078125 C 55.707031 187.976562 64.253906 194.117188 64.253906 205.054688 C 64.253906 215.988281 65.484375 236.75 59.394531 243.417969 C 53.367188 250.027344 42.949219 256.753906 39.320312 250.671875 Z M 39.320312 250.671875 " fill-opacity="1" fill-rule="nonzero"/><path fill="#3e2e1d" d="M 72.273438 173.761719 C 71.863281 174.054688 71.921875 174.054688 72.273438 173.761719 Z M 72.273438 173.761719 " fill-opacity="1" fill-rule="nonzero"/><path fill="#3e2e1d" d="M 314.066406 266.929688 C 314.652344 267.984375 314.652344 267.691406 314.066406 266.929688 Z M 314.066406 266.929688 " fill-opacity="1" fill-rule="nonzero"/><path fill="#3e2e1d" d="M 57.933594 181.191406 C 49.503906 179.902344 38.5 181.191406 41.074219 181.835938 C 43.652344 182.476562 58.578125 181.191406 63.785156 190.898438 C 68.996094 200.609375 67.648438 207.101562 67.648438 216.808594 C 67.648438 226.515625 65.71875 240.144531 64.429688 242.71875 C 63.140625 245.289062 57.933594 240.789062 56.644531 244.648438 C 55.355469 248.507812 48.214844 250.496094 53.425781 253.070312 C 58.636719 255.640625 56.644531 257.632812 63.140625 253.070312 C 69.640625 248.507812 65.71875 242.074219 74.789062 247.863281 C 83.863281 253.652344 82.574219 251.082031 89.714844 258.859375 C 96.855469 266.636719 120.855469 291.261719 123.429688 293.191406 C 126.003906 295.121094 132.5 304.828125 132.5 309.390625 C 132.5 313.953125 129.925781 317.167969 133.789062 315.238281 C 137.652344 313.308594 140.929688 313.308594 140.285156 308.105469 C 139.640625 302.898438 137.066406 303.542969 135.71875 298.394531 C 134.433594 293.191406 137.652344 292.546875 134.433594 289.972656 C 131.214844 287.398438 126.003906 286.757812 131.859375 284.125 C 137.710938 281.550781 139 279.5625 142.21875 284.769531 C 145.4375 289.972656 140.929688 291.261719 148.070312 293.832031 C 155.210938 296.40625 155.855469 291.261719 159.074219 297.050781 C 162.292969 302.898438 162.9375 302.253906 166.214844 307.402344 C 169.433594 312.605469 172.070312 319.039062 172.070312 319.039062 C 172.070312 319.039062 174.644531 321.613281 173.355469 313.835938 C 172.070312 306.054688 166.214844 306.054688 172.070312 302.839844 C 177.921875 299.625 177.277344 300.265625 181.140625 301.554688 C 185.003906 302.839844 193.433594 299.625 193.433594 308.046875 C 193.433594 316.46875 189.570312 324.246094 194.71875 320.96875 C 199.929688 317.753906 198.582031 317.753906 204.4375 310.617188 C 210.289062 303.484375 211.578125 301.554688 214.152344 302.839844 C 216.726562 304.125 219.363281 309.976562 219.363281 309.976562 C 219.363281 309.976562 224.570312 317.753906 228.433594 311.261719 C 232.296875 304.769531 229.722656 303.484375 238.148438 296.347656 C 246.578125 289.214844 239.4375 289.855469 253.074219 285.996094 C 266.714844 282.136719 264.722656 283.421875 271.21875 276.289062 C 277.71875 269.152344 270.578125 267.867188 282.222656 259.445312 C 293.871094 251.023438 301.65625 241.3125 302.945312 246.460938 C 304.230469 251.664062 298.378906 260.730469 306.808594 262.660156 C 310.847656 263.597656 313.128906 265.761719 314.007812 266.8125 C 313.714844 266.285156 313.246094 265.351562 312.660156 263.949219 C 309.441406 256.167969 306.808594 249.035156 306.164062 241.898438 C 305.519531 234.761719 298.378906 241.253906 303.589844 229.617188 C 308.796875 217.976562 303.589844 215.988281 310.730469 206.925781 C 317.871094 198.035156 332.796875 192.1875 329.578125 191.542969 C 326.355469 190.898438 320.503906 196.105469 316.640625 190.257812 C 312.777344 184.40625 314.066406 180.546875 312.074219 176.628906 C 310.144531 172.769531 305.578125 167.5625 305.578125 170.78125 C 305.578125 173.996094 310.789062 183.0625 300.367188 179.847656 C 290.007812 176.628906 288.722656 178.558594 280.9375 173.355469 C 273.152344 168.148438 264.722656 168.148438 259.574219 161.070312 C 254.363281 153.9375 256.996094 153.9375 245.933594 150.078125 C 234.929688 146.21875 234.289062 146.21875 227.144531 147.503906 C 220.003906 148.789062 220.003906 151.363281 207.070312 147.503906 C 194.078125 143.585938 199.285156 146.21875 186.933594 144.871094 C 174.585938 143.527344 175.929688 142.941406 166.214844 140.367188 C 156.5 137.796875 151.933594 137.152344 148.714844 137.796875 C 145.496094 138.4375 148.714844 133.933594 132.5 144.929688 C 132.5 144.929688 120.210938 157.855469 106.570312 163.0625 C 92.933594 168.265625 85.851562 167.621094 76.78125 171.484375 C 74.085938 172.652344 72.800781 173.414062 72.273438 173.820312 C 71.921875 174.113281 71.863281 174.113281 72.273438 173.820312 C 72.917969 173.179688 74.496094 171.308594 74.847656 167.621094 C 75.492188 159.84375 72.917969 148.207031 65.777344 141.070312 C 70.339844 159.84375 72.273438 165.050781 68.351562 174.113281 C 64.429688 183.121094 66.359375 182.476562 57.933594 181.191406 Z M 57.933594 181.191406 " fill-opacity="1" fill-rule="nonzero"/><path fill="#3e2e1d" d="M 113.1875 148.03125 C 111.957031 147.386719 112.25 147.035156 109.96875 147.5625 C 107.917969 147.972656 105.988281 148.789062 104.464844 150.3125 C 98.964844 155.808594 119.859375 151.363281 113.1875 148.03125 Z M 113.1875 148.03125 " fill-opacity="1" fill-rule="nonzero"/><path fill="#3e2e1d" d="M 123.722656 123.289062 C 123.195312 121.652344 119.625 119.605469 117.75 119.195312 C 107.859375 125.105469 126.472656 131.421875 123.722656 123.289062 Z M 123.722656 123.289062 " fill-opacity="1" fill-rule="nonzero"/><path fill="#3e2e1d" d="M 259.28125 141.363281 C 258.753906 139.726562 255.183594 137.679688 253.308594 137.269531 C 243.359375 143.175781 261.972656 149.492188 259.28125 141.363281 Z M 259.28125 141.363281 " fill-opacity="1" fill-rule="nonzero"/><path fill="#3e2e1d" d="M 231.476562 137.503906 C 231.476562 135.164062 230.777344 133.933594 228.726562 132.941406 C 226.679688 133.351562 224.804688 133.351562 222.757812 133.875 C 205.140625 138.261719 231.476562 146.625 231.476562 137.503906 Z M 231.476562 137.503906 " fill-opacity="1" fill-rule="nonzero"/><path fill="#3e2e1d" d="M 290.59375 280.847656 C 292.9375 283.1875 300.425781 271.902344 301.128906 269.855469 C 302.007812 267.28125 295.335938 260.378906 291.0625 262.074219 C 280.9375 270.03125 287.84375 266.871094 292 268.917969 C 294.75 270.320312 288.078125 278.335938 290.59375 280.847656 Z M 290.59375 280.847656 " fill-opacity="1" fill-rule="nonzero"/><path fill="#3e2e1d" d="M 89.363281 292.78125 C 101.421875 292.78125 87.550781 277.691406 84.796875 274.941406 C 71.511719 269.738281 82.515625 279.503906 83.453125 281.375 C 84.738281 283.949219 83.160156 292.78125 89.363281 292.78125 Z M 89.363281 292.78125 " fill-opacity="1" fill-rule="nonzero"/><path fill="#3e2e1d" d="M 180.144531 334.890625 C 182.488281 337.230469 192.613281 319.332031 181.492188 319.332031 C 173.882812 323.894531 177.746094 323.015625 179.210938 326.644531 C 180.203125 329.101562 177.921875 332.726562 180.144531 334.890625 Z M 180.144531 334.890625 " fill-opacity="1" fill-rule="nonzero"/><path fill="#3e2e1d" d="M 149.886719 306.054688 C 147.542969 308.046875 146.722656 308.335938 145.320312 310.617188 C 144.5 311.964844 143.269531 314.1875 144.382812 315.648438 C 150.121094 323.367188 157.84375 306.054688 149.886719 306.054688 Z M 149.886719 306.054688 " fill-opacity="1" fill-rule="nonzero"/><path fill="#3e2e1d" d="M 214.972656 313.367188 C 214.269531 311.554688 214.738281 311.378906 212.222656 312.023438 C 202.621094 320.269531 218.835938 323.074219 214.972656 313.367188 Z M 214.972656 313.367188 " fill-opacity="1" fill-rule="nonzero"/><path fill="#fae8d4" d="M 46.636719 214.703125 C 36.859375 213.476562 32.589844 212.890625 29.542969 219.558594 C 26.5 226.28125 30.128906 237.21875 38.089844 246.402344 C 49.09375 236.050781 55.765625 233.59375 46.636719 214.703125 Z M 46.636719 214.703125 " fill-opacity="1" fill-rule="nonzero"/><path fill="#fae8d4" d="M 316.816406 243.945312 C 326.589844 264.648438 334.492188 262.835938 334.492188 262.835938 C 334.492188 262.835938 346.667969 246.988281 339.351562 231.136719 C 329.636719 228.097656 322.320312 232.367188 316.816406 243.945312 Z M 316.816406 243.945312 " fill-opacity="1" fill-rule="nonzero"/><path fill="#62472d" d="M 268.644531 185.460938 C 275.960938 183.003906 279.648438 190.316406 282.046875 179.378906 C 282.398438 177.855469 282.632812 176.277344 282.867188 174.640625 C 282.222656 174.289062 281.640625 173.878906 280.878906 173.414062 C 273.09375 168.207031 264.664062 168.207031 259.515625 161.128906 C 254.304688 153.996094 256.9375 153.996094 245.875 150.136719 C 234.871094 146.273438 234.230469 146.273438 227.089844 147.5625 C 219.945312 148.847656 219.945312 151.421875 207.011719 147.5625 C 194.078125 143.585938 199.285156 146.21875 186.933594 144.871094 C 174.585938 143.527344 175.929688 142.941406 166.214844 140.367188 C 156.5 137.796875 151.933594 137.152344 148.714844 137.796875 C 147.484375 138.027344 147.191406 137.5625 146.433594 137.445312 C 145.144531 137.269531 142.628906 138.027344 132.5 144.929688 C 132.5 144.929688 121.144531 156.800781 108.152344 162.359375 C 104.582031 166.21875 100.25 170.253906 95.449219 173.296875 C 82.046875 181.835938 83.277344 176.980469 90.59375 192.769531 C 97.910156 208.621094 90.59375 209.847656 103.996094 209.847656 C 117.398438 209.847656 118.628906 194 133.261719 192.769531 C 147.894531 191.542969 149.125 194 144.265625 202.539062 C 139.40625 211.078125 127.175781 218.386719 127.175781 226.925781 C 127.175781 235.464844 122.316406 245.230469 138.179688 245.230469 C 154.039062 245.230469 150.351562 256.226562 162.585938 245.230469 C 174.703125 234.179688 169.84375 228.097656 179.617188 234.179688 C 189.394531 240.261719 186.933594 246.34375 200.339844 251.257812 C 213.742188 256.109375 212.511719 267.105469 229.605469 254.941406 C 246.695312 242.777344 251.554688 246.402344 243.007812 234.238281 C 234.460938 222.070312 217.429688 217.160156 233.292969 214.703125 C 249.152344 212.246094 233.292969 215.929688 257.699219 214.703125 C 282.105469 213.476562 284.566406 217.160156 282.105469 204.9375 C 279.648438 192.769531 261.328125 187.859375 268.644531 185.460938 Z M 268.644531 185.460938 " fill-opacity="1" fill-rule="nonzero"/><path fill="#489100" d="M 223.515625 100.128906 C 246.695312 104.984375 250.382812 94.046875 254.011719 64.804688 C 245.464844 81.882812 223.515625 69.660156 210.113281 63.578125 C 196.710938 57.496094 184.476562 63.578125 175.929688 76.96875 C 167.386719 67.203125 146.664062 58.664062 132.03125 70.886719 C 117.398438 83.113281 107.625 79.425781 94.222656 73.34375 C 99.078125 86.738281 112.542969 103.816406 125.945312 102.585938 C 139.347656 101.359375 158.898438 78.199219 171.074219 83.113281 C 183.246094 87.964844 184.476562 128.203125 182.078125 141.597656 C 179.675781 154.988281 173.472656 161.070312 173.472656 161.070312 C 188.105469 169.609375 189.335938 167.15625 189.335938 167.15625 C 189.335938 167.15625 188.105469 161.070312 188.105469 150.078125 C 188.105469 139.082031 195.480469 122.0625 182.019531 84.28125 C 193.023438 76.96875 200.339844 95.277344 223.515625 100.128906 Z M 223.515625 100.128906 " fill-opacity="1" fill-rule="nonzero"/><path fill="#3c7800" d="M 119.800781 89.253906 C 130.570312 88.375 137.066406 81.941406 145.671875 78.902344 C 154.273438 75.859375 165.101562 74.574219 173.296875 78.902344 C 161.242188 71.121094 155.210938 71.589844 140.929688 78.492188 C 126.707031 85.390625 109.441406 89.253906 100.367188 79.367188 C 100.425781 79.367188 109.03125 90.128906 119.800781 89.253906 Z M 119.800781 89.253906 " fill-opacity="1" fill-rule="nonzero"/><path fill="#3c7800" d="M 180.554688 76.152344 C 180.085938 76.386719 179.675781 76.679688 179.269531 76.96875 C 179.558594 76.855469 179.96875 76.5625 180.554688 76.152344 Z M 180.554688 76.152344 " fill-opacity="1" fill-rule="nonzero"/><path fill="#3c7800" d="M 199.695312 72.699219 C 204.90625 72.992188 215.265625 80.304688 224.6875 84.867188 C 234.171875 89.429688 244.179688 84.28125 250.324219 71.765625 C 244.824219 79.367188 238.734375 83.34375 227.730469 81.824219 C 216.785156 80.304688 207.949219 71.179688 198.171875 70.246094 C 190.039062 69.484375 183.421875 74.164062 180.554688 76.152344 C 186 72.933594 194.953125 72.410156 199.695312 72.699219 Z M 199.695312 72.699219 " fill-opacity="1" fill-rule="nonzero"/><path fill="#5ebd00" d="M 154.742188 79.367188 C 147.835938 79.777344 142.6875 81.941406 135.777344 86.269531 C 128.871094 90.597656 121.964844 92.761719 113.769531 89.71875 C 122.84375 98.316406 129.75 97.910156 138.765625 91.007812 C 147.835938 84.105469 154.742188 79.367188 154.742188 79.367188 Z M 154.742188 79.367188 " fill-opacity="1" fill-rule="nonzero"/><path fill="#5ebd00" d="M 160.714844 71.765625 C 153.398438 67.496094 150.0625 66.910156 140.871094 69.660156 C 131.742188 72.410156 135.078125 72.992188 121.027344 81.238281 C 125.007812 80.949219 132.617188 78.199219 137.828125 76.035156 C 142.976562 73.929688 148.773438 70.246094 160.714844 71.765625 Z M 160.714844 71.765625 " fill-opacity="1" fill-rule="nonzero"/><path fill="#5ebd00" d="M 227.789062 79.074219 C 233.585938 79.074219 236.921875 75.742188 236.921875 75.742188 C 236.921875 75.742188 224.746094 76.035156 217.722656 70.886719 C 210.699219 65.683594 200.046875 59.015625 186 69.953125 C 196.652344 65.390625 198.816406 66.269531 205.488281 69.660156 C 212.222656 72.992188 221.996094 79.074219 227.789062 79.074219 Z M 227.789062 79.074219 " fill-opacity="1" fill-rule="nonzero"/><path fill="#5ebd00" d="M 213.449219 91.59375 C 223.226562 97.675781 232.0625 95.570312 237.566406 88.550781 C 228.433594 93.113281 214.09375 84.28125 206.132812 78.492188 C 198.230469 72.699219 188.75 76.96875 187.226562 77.261719 C 196.652344 76.679688 203.675781 85.507812 213.449219 91.59375 Z M 213.449219 91.59375 " fill-opacity="1" fill-rule="nonzero"/></svg>